<svg xmlns="http://www.w3.org/2000/svg" width="460" height="189" viewBox="0 0 460 189" role="img" aria-label="Languages" shape-rendering="geometricPrecision">
  <defs>
    <linearGradient id="metalBorder" x1="0%" y1="0%" x2="100%" y2="100%">
      <stop offset="0%" stop-color="#f8fafc"/>
      <stop offset="28%" stop-color="#b6bec8"/>
      <stop offset="52%" stop-color="#eef1f4"/>
      <stop offset="78%" stop-color="#8b96a3"/>
      <stop offset="100%" stop-color="#6d7784"/>
    </linearGradient>
    <filter id="softShadow" x="-6%" y="-6%" width="112%" height="112%">
      <feDropShadow dx="0" dy="2" stdDeviation="4" flood-color="#94a3b8" flood-opacity="0.2"/>
    </filter>
    <clipPath id="barClip">
      <rect x="24" y="44" width="412" height="9" rx="4.5"/>
    </clipPath>
  </defs>
  <g filter="url(#softShadow)">
    <rect width="460" height="189" rx="14" fill="url(#metalBorder)"/>
    <rect x="3" y="3" width="454" height="183" rx="11" fill="#ffffff"/>
  </g>
  <text x="230" y="30" fill="#24292f" text-anchor="middle" font-family="-apple-system, BlinkMacSystemFont, Segoe UI, Helvetica, Arial, sans-serif" font-size="13" font-weight="600">Languages</text>
  <g clip-path="url(#barClip)">
    <rect x="24" y="44" width="412" height="9" fill="#eef1f4"/>
    <rect x="24" y="44" width="139" height="9" fill="#3D6117"/>
    <rect x="163" y="44" width="123" height="9" fill="#3572A5"/>
    <rect x="286" y="44" width="61" height="9" fill="#3178c6"/>
    <rect x="347" y="44" width="48" height="9" fill="#f1e05a"/>
    <rect x="395" y="44" width="17" height="9" fill="#e34c26"/>
    <rect x="412" y="44" width="15" height="9" fill="#563d7c"/>
    <rect x="427" y="44" width="9" height="9" fill="#484f58"/>
  </g>
  <rect x="24" y="44" width="412" height="9" rx="4.5" fill="none" stroke="#d0d7de" stroke-width="1"/>
  <rect x="24" y="73" width="6" height="6" rx="1.5" fill="#3D6117"/>
  <text x="37" y="82" font-family="-apple-system, BlinkMacSystemFont, Segoe UI, Helvetica, Arial, sans-serif" font-size="11">
    <tspan fill="#24292f">TeX</tspan><tspan fill="#8b949e"> 34%</tspan>
  </text>
  <rect x="250" y="73" width="6" height="6" rx="1.5" fill="#3572A5"/>
  <text x="263" y="82" font-family="-apple-system, BlinkMacSystemFont, Segoe UI, Helvetica, Arial, sans-serif" font-size="11">
    <tspan fill="#24292f">Python</tspan><tspan fill="#8b949e"> 30%</tspan>
  </text>
  <rect x="24" y="93" width="6" height="6" rx="1.5" fill="#3178c6"/>
  <text x="37" y="102" font-family="-apple-system, BlinkMacSystemFont, Segoe UI, Helvetica, Arial, sans-serif" font-size="11">
    <tspan fill="#24292f">TypeScript</tspan><tspan fill="#8b949e"> 15%</tspan>
  </text>
  <rect x="250" y="93" width="6" height="6" rx="1.5" fill="#f1e05a"/>
  <text x="263" y="102" font-family="-apple-system, BlinkMacSystemFont, Segoe UI, Helvetica, Arial, sans-serif" font-size="11">
    <tspan fill="#24292f">JavaScript</tspan><tspan fill="#8b949e"> 12%</tspan>
  </text>
  <rect x="24" y="113" width="6" height="6" rx="1.5" fill="#e34c26"/>
  <text x="37" y="122" font-family="-apple-system, BlinkMacSystemFont, Segoe UI, Helvetica, Arial, sans-serif" font-size="11">
    <tspan fill="#24292f">HTML</tspan><tspan fill="#8b949e"> 4.1%</tspan>
  </text>
  <rect x="250" y="113" width="6" height="6" rx="1.5" fill="#563d7c"/>
  <text x="263" y="122" font-family="-apple-system, BlinkMacSystemFont, Segoe UI, Helvetica, Arial, sans-serif" font-size="11">
    <tspan fill="#24292f">CSS</tspan><tspan fill="#8b949e"> 3.6%</tspan>
  </text>
  <rect x="24" y="133" width="6" height="6" rx="1.5" fill="#f34b7d"/>
  <text x="37" y="142" font-family="-apple-system, BlinkMacSystemFont, Segoe UI, Helvetica, Arial, sans-serif" font-size="11">
    <tspan fill="#24292f">C++</tspan><tspan fill="#8b949e"> 0.8%</tspan>
  </text>
  <rect x="250" y="133" width="6" height="6" rx="1.5" fill="#A97BFF"/>
  <text x="263" y="142" font-family="-apple-system, BlinkMacSystemFont, Segoe UI, Helvetica, Arial, sans-serif" font-size="11">
    <tspan fill="#24292f">Kotlin</tspan><tspan fill="#8b949e"> 0.5%</tspan>
  </text>
  <rect x="24" y="153" width="6" height="6" rx="1.5" fill="#dea584"/>
  <text x="37" y="162" font-family="-apple-system, BlinkMacSystemFont, Segoe UI, Helvetica, Arial, sans-serif" font-size="11">
    <tspan fill="#24292f">Rust</tspan><tspan fill="#8b949e"> 0.3%</tspan>
  </text>
  <rect x="250" y="153" width="6" height="6" rx="1.5" fill="#484f58"/>
  <text x="263" y="162" font-family="-apple-system, BlinkMacSystemFont, Segoe UI, Helvetica, Arial, sans-serif" font-size="11">
    <tspan fill="#24292f">Other</tspan><tspan fill="#8b949e"> 0.6%</tspan>
  </text>
</svg>
