<svg xmlns="http://www.w3.org/2000/svg" width="460" height="220" viewBox="0 0 460 220" role="img" aria-label="Languages">
  <defs>
    <linearGradient id="metalEdge" x1="0%" y1="0%" x2="100%" y2="100%">
      <stop offset="0%" stop-color="#ffffff"/>
      <stop offset="12%" stop-color="#eef1f5"/>
      <stop offset="30%" stop-color="#9aa4b2"/>
      <stop offset="48%" stop-color="#d8dde4"/>
      <stop offset="66%" stop-color="#707b8a"/>
      <stop offset="84%" stop-color="#c3cad3"/>
      <stop offset="100%" stop-color="#4f5864"/>
    </linearGradient>
    <linearGradient id="metalRim" x1="0%" y1="0%" x2="100%" y2="100%">
      <stop offset="0%" stop-color="#6b7480"/>
      <stop offset="100%" stop-color="#3f4650"/>
    </linearGradient>
    <linearGradient id="metalHighlight" x1="0%" y1="0%" x2="0%" y2="100%">
      <stop offset="0%" stop-color="#ffffff" stop-opacity="0.95"/>
      <stop offset="55%" stop-color="#ffffff" stop-opacity="0"/>
    </linearGradient>
    <linearGradient id="metalSheen" x1="0%" y1="0%" x2="100%" y2="0%">
      <stop offset="0%" stop-color="#ffffff" stop-opacity="0"/>
      <stop offset="45%" stop-color="#ffffff" stop-opacity="0.55"/>
      <stop offset="55%" stop-color="#ffffff" stop-opacity="0.55"/>
      <stop offset="100%" stop-color="#ffffff" stop-opacity="0"/>
    </linearGradient>
    <filter id="cardShadow" x="-10%" y="-10%" width="120%" height="120%">
      <feDropShadow dx="0" dy="4" stdDeviation="5" flood-color="#667080" flood-opacity="0.32"/>
    </filter>
  </defs>
  <rect x="1" y="1" width="458" height="218" rx="15" fill="url(#metalRim)" filter="url(#cardShadow)"/>
  <rect x="2" y="2" width="456" height="216" rx="14" fill="url(#metalEdge)"/>
  <rect x="6" y="6" width="448" height="208" rx="10" fill="#ffffff" stroke="#b8c0ca" stroke-width="1"/>
  <rect x="7" y="7" width="446" height="34" rx="9" fill="url(#metalHighlight)"/>
  <rect x="14" y="16" width="432" height="8" rx="4" fill="url(#metalSheen)"/>
  <text x="230" y="34" fill="#24292f" text-anchor="middle" font-family="Segoe UI, Helvetica, Arial, sans-serif" font-size="14" font-weight="600">Languages</text>
  <rect x="24" y="48" width="412" height="10" rx="5" fill="#f3f4f6"/>
  <rect x="24" y="48" width="188" height="10" rx="0" fill="#3572A5"/>
  <rect x="212" y="48" width="89" height="10" rx="0" fill="#3178c6"/>
  <rect x="301" y="48" width="76" height="10" rx="0" fill="#f1e05a"/>
  <rect x="377" y="48" width="22" height="10" rx="0" fill="#563d7c"/>
  <rect x="399" y="48" width="16" height="10" rx="0" fill="#e34c26"/>
  <rect x="415" y="48" width="13" height="10" rx="0" fill="#3D6117"/>
  <rect x="428" y="48" width="3" height="10" rx="0" fill="#A97BFF"/>
  <rect x="431" y="48" width="3" height="10" rx="0" fill="#dea584"/>
  <rect x="434" y="48" width="3" height="10" rx="0" fill="#355570"/>
  <rect x="437" y="48" width="2" height="10" rx="0" fill="#484f58"/>
  <rect x="24" y="48" width="412" height="10" rx="5" fill="none" stroke="#e8ebef" stroke-width="1"/>
  <circle cx="29" cy="92" r="3.5" fill="#3572A5"/>
  <text x="38" y="96" fill="#24292f" font-family="Segoe UI, Helvetica, Arial, sans-serif" font-size="12">Python</text>
  <text x="212" y="96" fill="#656d76" text-anchor="end" font-family="Segoe UI, Helvetica, Arial, sans-serif" font-size="12">46%</text>
  <circle cx="249" cy="92" r="3.5" fill="#3178c6"/>
  <text x="258" y="96" fill="#24292f" font-family="Segoe UI, Helvetica, Arial, sans-serif" font-size="12">TypeScript</text>
  <text x="432" y="96" fill="#656d76" text-anchor="end" font-family="Segoe UI, Helvetica, Arial, sans-serif" font-size="12">22%</text>
  <circle cx="29" cy="116" r="3.5" fill="#f1e05a"/>
  <text x="38" y="120" fill="#24292f" font-family="Segoe UI, Helvetica, Arial, sans-serif" font-size="12">JavaScript</text>
  <text x="212" y="120" fill="#656d76" text-anchor="end" font-family="Segoe UI, Helvetica, Arial, sans-serif" font-size="12">18%</text>
  <circle cx="249" cy="116" r="3.5" fill="#563d7c"/>
  <text x="258" y="120" fill="#24292f" font-family="Segoe UI, Helvetica, Arial, sans-serif" font-size="12">CSS</text>
  <text x="432" y="120" fill="#656d76" text-anchor="end" font-family="Segoe UI, Helvetica, Arial, sans-serif" font-size="12">5.4%</text>
  <circle cx="29" cy="140" r="3.5" fill="#e34c26"/>
  <text x="38" y="144" fill="#24292f" font-family="Segoe UI, Helvetica, Arial, sans-serif" font-size="12">HTML</text>
  <text x="212" y="144" fill="#656d76" text-anchor="end" font-family="Segoe UI, Helvetica, Arial, sans-serif" font-size="12">3.9%</text>
  <circle cx="249" cy="140" r="3.5" fill="#3D6117"/>
  <text x="258" y="144" fill="#24292f" font-family="Segoe UI, Helvetica, Arial, sans-serif" font-size="12">TeX</text>
  <text x="432" y="144" fill="#656d76" text-anchor="end" font-family="Segoe UI, Helvetica, Arial, sans-serif" font-size="12">3.1%</text>
  <circle cx="29" cy="164" r="3.5" fill="#A97BFF"/>
  <text x="38" y="168" fill="#24292f" font-family="Segoe UI, Helvetica, Arial, sans-serif" font-size="12">Kotlin</text>
  <text x="212" y="168" fill="#656d76" text-anchor="end" font-family="Segoe UI, Helvetica, Arial, sans-serif" font-size="12">0.7%</text>
  <circle cx="249" cy="164" r="3.5" fill="#dea584"/>
  <text x="258" y="168" fill="#24292f" font-family="Segoe UI, Helvetica, Arial, sans-serif" font-size="12">Rust</text>
  <text x="432" y="168" fill="#656d76" text-anchor="end" font-family="Segoe UI, Helvetica, Arial, sans-serif" font-size="12">0.5%</text>
  <circle cx="29" cy="188" r="3.5" fill="#355570"/>
  <text x="38" y="192" fill="#24292f" font-family="Segoe UI, Helvetica, Arial, sans-serif" font-size="12">GDScript</text>
  <text x="212" y="192" fill="#656d76" text-anchor="end" font-family="Segoe UI, Helvetica, Arial, sans-serif" font-size="12">0.3%</text>
  <circle cx="249" cy="188" r="3.5" fill="#484f58"/>
  <text x="258" y="192" fill="#24292f" font-family="Segoe UI, Helvetica, Arial, sans-serif" font-size="12">Other</text>
  <text x="432" y="192" fill="#656d76" text-anchor="end" font-family="Segoe UI, Helvetica, Arial, sans-serif" font-size="12">0.5%</text>
</svg>
