<svg xmlns="http://www.w3.org/2000/svg" width="460" height="202" viewBox="0 0 460 202" role="img" aria-label="Languages" shape-rendering="geometricPrecision">
  <defs>
    <linearGradient id="metalBorder" x1="0%" y1="0%" x2="100%" y2="100%">
      <stop offset="0%" stop-color="#f8fafc"/>
      <stop offset="28%" stop-color="#b6bec8"/>
      <stop offset="52%" stop-color="#eef1f4"/>
      <stop offset="78%" stop-color="#8b96a3"/>
      <stop offset="100%" stop-color="#6d7784"/>
    </linearGradient>
    <filter id="softShadow" x="-6%" y="-6%" width="112%" height="112%">
      <feDropShadow dx="0" dy="2" stdDeviation="4" flood-color="#94a3b8" flood-opacity="0.2"/>
    </filter>
    <clipPath id="barClip">
      <rect x="24" y="46" width="412" height="8" rx="4"/>
    </clipPath>
  </defs>
  <g filter="url(#softShadow)">
    <rect width="460" height="202" rx="14" fill="url(#metalBorder)"/>
    <rect x="3" y="3" width="454" height="196" rx="11" fill="#ffffff"/>
  </g>
  <text x="230" y="32" fill="#24292f" text-anchor="middle" font-family="Segoe UI, Helvetica, Arial, sans-serif" font-size="13" font-weight="600">Languages</text>
  <g clip-path="url(#barClip)">
    <rect x="24" y="46" width="412" height="8" fill="#eef1f4"/>
    <rect x="24" y="46" width="139" height="8" fill="#3D6117"/>
    <rect x="163" y="46" width="123" height="8" fill="#3572A5"/>
    <rect x="286" y="46" width="61" height="8" fill="#3178c6"/>
    <rect x="347" y="46" width="48" height="8" fill="#f1e05a"/>
    <rect x="395" y="46" width="17" height="8" fill="#e34c26"/>
    <rect x="412" y="46" width="15" height="8" fill="#563d7c"/>
    <rect x="427" y="46" width="3" height="8" fill="#f34b7d"/>
    <rect x="430" y="46" width="2" height="8" fill="#A97BFF"/>
    <rect x="432" y="46" width="1" height="8" fill="#dea584"/>
    <rect x="433" y="46" width="3" height="8" fill="#484f58"/>
  </g>
  <rect x="24" y="46" width="412" height="8" rx="4" fill="none" stroke="#d0d7de" stroke-width="1"/>
  <rect x="24" y="82" width="6" height="6" rx="1.5" fill="#3D6117"/>
  <text x="38" y="86" fill="#24292f" font-family="Segoe UI, Helvetica, Arial, sans-serif" font-size="11">TeX</text>
  <text x="216" y="86" fill="#8b949e" text-anchor="end" font-family="Segoe UI, Helvetica, Arial, sans-serif" font-size="11">34%</text>
  <rect x="244" y="82" width="6" height="6" rx="1.5" fill="#3572A5"/>
  <text x="258" y="86" fill="#24292f" font-family="Segoe UI, Helvetica, Arial, sans-serif" font-size="11">Python</text>
  <text x="436" y="86" fill="#8b949e" text-anchor="end" font-family="Segoe UI, Helvetica, Arial, sans-serif" font-size="11">30%</text>
  <rect x="24" y="104" width="6" height="6" rx="1.5" fill="#3178c6"/>
  <text x="38" y="108" fill="#24292f" font-family="Segoe UI, Helvetica, Arial, sans-serif" font-size="11">TypeScript</text>
  <text x="216" y="108" fill="#8b949e" text-anchor="end" font-family="Segoe UI, Helvetica, Arial, sans-serif" font-size="11">15%</text>
  <rect x="244" y="104" width="6" height="6" rx="1.5" fill="#f1e05a"/>
  <text x="258" y="108" fill="#24292f" font-family="Segoe UI, Helvetica, Arial, sans-serif" font-size="11">JavaScript</text>
  <text x="436" y="108" fill="#8b949e" text-anchor="end" font-family="Segoe UI, Helvetica, Arial, sans-serif" font-size="11">12%</text>
  <rect x="24" y="126" width="6" height="6" rx="1.5" fill="#e34c26"/>
  <text x="38" y="130" fill="#24292f" font-family="Segoe UI, Helvetica, Arial, sans-serif" font-size="11">HTML</text>
  <text x="216" y="130" fill="#8b949e" text-anchor="end" font-family="Segoe UI, Helvetica, Arial, sans-serif" font-size="11">4.1%</text>
  <rect x="244" y="126" width="6" height="6" rx="1.5" fill="#563d7c"/>
  <text x="258" y="130" fill="#24292f" font-family="Segoe UI, Helvetica, Arial, sans-serif" font-size="11">CSS</text>
  <text x="436" y="130" fill="#8b949e" text-anchor="end" font-family="Segoe UI, Helvetica, Arial, sans-serif" font-size="11">3.6%</text>
  <rect x="24" y="148" width="6" height="6" rx="1.5" fill="#f34b7d"/>
  <text x="38" y="152" fill="#24292f" font-family="Segoe UI, Helvetica, Arial, sans-serif" font-size="11">C++</text>
  <text x="216" y="152" fill="#8b949e" text-anchor="end" font-family="Segoe UI, Helvetica, Arial, sans-serif" font-size="11">0.8%</text>
  <rect x="244" y="148" width="6" height="6" rx="1.5" fill="#A97BFF"/>
  <text x="258" y="152" fill="#24292f" font-family="Segoe UI, Helvetica, Arial, sans-serif" font-size="11">Kotlin</text>
  <text x="436" y="152" fill="#8b949e" text-anchor="end" font-family="Segoe UI, Helvetica, Arial, sans-serif" font-size="11">0.5%</text>
  <rect x="24" y="170" width="6" height="6" rx="1.5" fill="#dea584"/>
  <text x="38" y="174" fill="#24292f" font-family="Segoe UI, Helvetica, Arial, sans-serif" font-size="11">Rust</text>
  <text x="216" y="174" fill="#8b949e" text-anchor="end" font-family="Segoe UI, Helvetica, Arial, sans-serif" font-size="11">0.3%</text>
  <rect x="244" y="170" width="6" height="6" rx="1.5" fill="#484f58"/>
  <text x="258" y="174" fill="#24292f" font-family="Segoe UI, Helvetica, Arial, sans-serif" font-size="11">Other</text>
  <text x="436" y="174" fill="#8b949e" text-anchor="end" font-family="Segoe UI, Helvetica, Arial, sans-serif" font-size="11">0.6%</text>
</svg>
