<svg xmlns="http://www.w3.org/2000/svg" width="420" height="394" viewBox="0 0 420 394">
  <rect width="420" height="394" rx="4.5" fill="#0d1117" stroke="#30363d"/>
  <text x="20" y="24" fill="#58a6ff" font-family="Segoe UI, Helvetica, Arial, sans-serif" font-size="14" font-weight="600">All Languages</text>
  <text x="20" y="36" fill="#8b949e" font-family="Segoe UI, Helvetica, Arial, sans-serif" font-size="12">Python</text>
  <text x="400" y="36" fill="#8b949e" text-anchor="end" font-family="Segoe UI, Helvetica, Arial, sans-serif" font-size="12">45.63%</text>
  <rect x="20" y="40" width="360" height="8" rx="4" fill="#161b22"/>
  <rect x="20" y="40" width="164" height="8" rx="4" fill="#3572A5"/>
  <text x="20" y="54" fill="#8b949e" font-family="Segoe UI, Helvetica, Arial, sans-serif" font-size="12">TypeScript</text>
  <text x="400" y="54" fill="#8b949e" text-anchor="end" font-family="Segoe UI, Helvetica, Arial, sans-serif" font-size="12">21.64%</text>
  <rect x="20" y="58" width="360" height="8" rx="4" fill="#161b22"/>
  <rect x="20" y="58" width="78" height="8" rx="4" fill="#3178c6"/>
  <text x="20" y="72" fill="#8b949e" font-family="Segoe UI, Helvetica, Arial, sans-serif" font-size="12">JavaScript</text>
  <text x="400" y="72" fill="#8b949e" text-anchor="end" font-family="Segoe UI, Helvetica, Arial, sans-serif" font-size="12">18.33%</text>
  <rect x="20" y="76" width="360" height="8" rx="4" fill="#161b22"/>
  <rect x="20" y="76" width="66" height="8" rx="4" fill="#f1e05a"/>
  <text x="20" y="90" fill="#8b949e" font-family="Segoe UI, Helvetica, Arial, sans-serif" font-size="12">CSS</text>
  <text x="400" y="90" fill="#8b949e" text-anchor="end" font-family="Segoe UI, Helvetica, Arial, sans-serif" font-size="12">5.38%</text>
  <rect x="20" y="94" width="360" height="8" rx="4" fill="#161b22"/>
  <rect x="20" y="94" width="19" height="8" rx="4" fill="#563d7c"/>
  <text x="20" y="108" fill="#8b949e" font-family="Segoe UI, Helvetica, Arial, sans-serif" font-size="12">HTML</text>
  <text x="400" y="108" fill="#8b949e" text-anchor="end" font-family="Segoe UI, Helvetica, Arial, sans-serif" font-size="12">3.92%</text>
  <rect x="20" y="112" width="360" height="8" rx="4" fill="#161b22"/>
  <rect x="20" y="112" width="14" height="8" rx="4" fill="#e34c26"/>
  <text x="20" y="126" fill="#8b949e" font-family="Segoe UI, Helvetica, Arial, sans-serif" font-size="12">TeX</text>
  <text x="400" y="126" fill="#8b949e" text-anchor="end" font-family="Segoe UI, Helvetica, Arial, sans-serif" font-size="12">3.11%</text>
  <rect x="20" y="130" width="360" height="8" rx="4" fill="#161b22"/>
  <rect x="20" y="130" width="11" height="8" rx="4" fill="#3D6117"/>
  <text x="20" y="144" fill="#8b949e" font-family="Segoe UI, Helvetica, Arial, sans-serif" font-size="12">Kotlin</text>
  <text x="400" y="144" fill="#8b949e" text-anchor="end" font-family="Segoe UI, Helvetica, Arial, sans-serif" font-size="12">0.74%</text>
  <rect x="20" y="148" width="360" height="8" rx="4" fill="#161b22"/>
  <rect x="20" y="148" width="3" height="8" rx="4" fill="#A97BFF"/>
  <text x="20" y="162" fill="#8b949e" font-family="Segoe UI, Helvetica, Arial, sans-serif" font-size="12">Rust</text>
  <text x="400" y="162" fill="#8b949e" text-anchor="end" font-family="Segoe UI, Helvetica, Arial, sans-serif" font-size="12">0.48%</text>
  <rect x="20" y="166" width="360" height="8" rx="4" fill="#161b22"/>
  <rect x="20" y="166" width="2" height="8" rx="4" fill="#dea584"/>
  <text x="20" y="180" fill="#8b949e" font-family="Segoe UI, Helvetica, Arial, sans-serif" font-size="12">GDScript</text>
  <text x="400" y="180" fill="#8b949e" text-anchor="end" font-family="Segoe UI, Helvetica, Arial, sans-serif" font-size="12">0.27%</text>
  <rect x="20" y="184" width="360" height="8" rx="4" fill="#161b22"/>
  <rect x="20" y="184" width="2" height="8" rx="4" fill="#8b949e"/>
  <text x="20" y="198" fill="#8b949e" font-family="Segoe UI, Helvetica, Arial, sans-serif" font-size="12">Jupyter Notebook</text>
  <text x="400" y="198" fill="#8b949e" text-anchor="end" font-family="Segoe UI, Helvetica, Arial, sans-serif" font-size="12">0.17%</text>
  <rect x="20" y="202" width="360" height="8" rx="4" fill="#161b22"/>
  <rect x="20" y="202" width="2" height="8" rx="4" fill="#8b949e"/>
  <text x="20" y="216" fill="#8b949e" font-family="Segoe UI, Helvetica, Arial, sans-serif" font-size="12">Odin</text>
  <text x="400" y="216" fill="#8b949e" text-anchor="end" font-family="Segoe UI, Helvetica, Arial, sans-serif" font-size="12">0.14%</text>
  <rect x="20" y="220" width="360" height="8" rx="4" fill="#161b22"/>
  <rect x="20" y="220" width="2" height="8" rx="4" fill="#8b949e"/>
  <text x="20" y="234" fill="#8b949e" font-family="Segoe UI, Helvetica, Arial, sans-serif" font-size="12">PowerShell</text>
  <text x="400" y="234" fill="#8b949e" text-anchor="end" font-family="Segoe UI, Helvetica, Arial, sans-serif" font-size="12">0.06%</text>
  <rect x="20" y="238" width="360" height="8" rx="4" fill="#161b22"/>
  <rect x="20" y="238" width="2" height="8" rx="4" fill="#8b949e"/>
  <text x="20" y="252" fill="#8b949e" font-family="Segoe UI, Helvetica, Arial, sans-serif" font-size="12">Java</text>
  <text x="400" y="252" fill="#8b949e" text-anchor="end" font-family="Segoe UI, Helvetica, Arial, sans-serif" font-size="12">0.05%</text>
  <rect x="20" y="256" width="360" height="8" rx="4" fill="#161b22"/>
  <rect x="20" y="256" width="2" height="8" rx="4" fill="#b07219"/>
  <text x="20" y="270" fill="#8b949e" font-family="Segoe UI, Helvetica, Arial, sans-serif" font-size="12">Shell</text>
  <text x="400" y="270" fill="#8b949e" text-anchor="end" font-family="Segoe UI, Helvetica, Arial, sans-serif" font-size="12">0.03%</text>
  <rect x="20" y="274" width="360" height="8" rx="4" fill="#161b22"/>
  <rect x="20" y="274" width="2" height="8" rx="4" fill="#89e051"/>
  <text x="20" y="288" fill="#8b949e" font-family="Segoe UI, Helvetica, Arial, sans-serif" font-size="12">GDShader</text>
  <text x="400" y="288" fill="#8b949e" text-anchor="end" font-family="Segoe UI, Helvetica, Arial, sans-serif" font-size="12">0.02%</text>
  <rect x="20" y="292" width="360" height="8" rx="4" fill="#161b22"/>
  <rect x="20" y="292" width="2" height="8" rx="4" fill="#8b949e"/>
  <text x="20" y="306" fill="#8b949e" font-family="Segoe UI, Helvetica, Arial, sans-serif" font-size="12">Batchfile</text>
  <text x="400" y="306" fill="#8b949e" text-anchor="end" font-family="Segoe UI, Helvetica, Arial, sans-serif" font-size="12">0.01%</text>
  <rect x="20" y="310" width="360" height="8" rx="4" fill="#161b22"/>
  <rect x="20" y="310" width="2" height="8" rx="4" fill="#8b949e"/>
  <text x="20" y="324" fill="#8b949e" font-family="Segoe UI, Helvetica, Arial, sans-serif" font-size="12">Makefile</text>
  <text x="400" y="324" fill="#8b949e" text-anchor="end" font-family="Segoe UI, Helvetica, Arial, sans-serif" font-size="12">0.01%</text>
  <rect x="20" y="328" width="360" height="8" rx="4" fill="#161b22"/>
  <rect x="20" y="328" width="2" height="8" rx="4" fill="#427819"/>
  <text x="20" y="342" fill="#8b949e" font-family="Segoe UI, Helvetica, Arial, sans-serif" font-size="12">NSIS</text>
  <text x="400" y="342" fill="#8b949e" text-anchor="end" font-family="Segoe UI, Helvetica, Arial, sans-serif" font-size="12">0%</text>
  <rect x="20" y="346" width="360" height="8" rx="4" fill="#161b22"/>
  <rect x="20" y="346" width="2" height="8" rx="4" fill="#8b949e"/>
  <text x="20" y="360" fill="#8b949e" font-family="Segoe UI, Helvetica, Arial, sans-serif" font-size="12">Dockerfile</text>
  <text x="400" y="360" fill="#8b949e" text-anchor="end" font-family="Segoe UI, Helvetica, Arial, sans-serif" font-size="12">0%</text>
  <rect x="20" y="364" width="360" height="8" rx="4" fill="#161b22"/>
  <rect x="20" y="364" width="2" height="8" rx="4" fill="#384d54"/>
  <text x="20" y="388" fill="#6e7681" font-family="Segoe UI, Helvetica, Arial, sans-serif" font-size="10">19 languages across public repositories</text>
</svg>
