<svg xmlns="http://www.w3.org/2000/svg" width="460" height="228" viewBox="0 0 460 228" role="img" aria-label="Language usage across public repositories">
  <defs>
    <linearGradient id="cardGlow" x1="0" y1="0" x2="1" y2="1">
      <stop offset="0%" stop-color="#161b22"/>
      <stop offset="100%" stop-color="#0d1117"/>
    </linearGradient>
  </defs>
  <rect width="460" height="228" rx="12" fill="url(#cardGlow)" stroke="#30363d"/>
  <text x="24" y="34" fill="#e6edf3" font-family="Segoe UI, Helvetica, Arial, sans-serif" font-size="16" font-weight="600">Languages</text>
  <rect x="24" y="48" width="412" height="10" rx="5" fill="#21262d"/>
  <rect x="24" y="48" width="188" height="10" rx="0" fill="#3572A5"/>
  <rect x="212" y="48" width="89" height="10" rx="0" fill="#3178c6"/>
  <rect x="301" y="48" width="76" height="10" rx="0" fill="#f1e05a"/>
  <rect x="377" y="48" width="22" height="10" rx="0" fill="#563d7c"/>
  <rect x="399" y="48" width="16" height="10" rx="0" fill="#e34c26"/>
  <rect x="415" y="48" width="13" height="10" rx="0" fill="#3D6117"/>
  <rect x="428" y="48" width="3" height="10" rx="0" fill="#A97BFF"/>
  <rect x="431" y="48" width="3" height="10" rx="0" fill="#dea584"/>
  <rect x="434" y="48" width="3" height="10" rx="0" fill="#355570"/>
  <rect x="437" y="48" width="2" height="10" rx="0" fill="#484f58"/>
  <rect x="24" y="48" width="412" height="10" rx="5" fill="none" stroke="#30363d" stroke-width="1"/>
  <circle cx="29" cy="92" r="4" fill="#3572A5"/>
  <text x="38" y="96" fill="#c9d1d9" font-family="Segoe UI, Helvetica, Arial, sans-serif" font-size="12">Python</text>
  <text x="212" y="96" fill="#8b949e" text-anchor="end" font-family="Segoe UI, Helvetica, Arial, sans-serif" font-size="12">46%</text>
  <circle cx="29" cy="116" r="4" fill="#3178c6"/>
  <text x="38" y="120" fill="#c9d1d9" font-family="Segoe UI, Helvetica, Arial, sans-serif" font-size="12">TypeScript</text>
  <text x="212" y="120" fill="#8b949e" text-anchor="end" font-family="Segoe UI, Helvetica, Arial, sans-serif" font-size="12">22%</text>
  <circle cx="29" cy="140" r="4" fill="#f1e05a"/>
  <text x="38" y="144" fill="#c9d1d9" font-family="Segoe UI, Helvetica, Arial, sans-serif" font-size="12">JavaScript</text>
  <text x="212" y="144" fill="#8b949e" text-anchor="end" font-family="Segoe UI, Helvetica, Arial, sans-serif" font-size="12">18%</text>
  <circle cx="29" cy="164" r="4" fill="#563d7c"/>
  <text x="38" y="168" fill="#c9d1d9" font-family="Segoe UI, Helvetica, Arial, sans-serif" font-size="12">CSS</text>
  <text x="212" y="168" fill="#8b949e" text-anchor="end" font-family="Segoe UI, Helvetica, Arial, sans-serif" font-size="12">5.4%</text>
  <circle cx="29" cy="188" r="4" fill="#e34c26"/>
  <text x="38" y="192" fill="#c9d1d9" font-family="Segoe UI, Helvetica, Arial, sans-serif" font-size="12">HTML</text>
  <text x="212" y="192" fill="#8b949e" text-anchor="end" font-family="Segoe UI, Helvetica, Arial, sans-serif" font-size="12">3.9%</text>
  <circle cx="249" cy="92" r="4" fill="#3D6117"/>
  <text x="258" y="96" fill="#c9d1d9" font-family="Segoe UI, Helvetica, Arial, sans-serif" font-size="12">TeX</text>
  <text x="432" y="96" fill="#8b949e" text-anchor="end" font-family="Segoe UI, Helvetica, Arial, sans-serif" font-size="12">3.1%</text>
  <circle cx="249" cy="116" r="4" fill="#A97BFF"/>
  <text x="258" y="120" fill="#c9d1d9" font-family="Segoe UI, Helvetica, Arial, sans-serif" font-size="12">Kotlin</text>
  <text x="432" y="120" fill="#8b949e" text-anchor="end" font-family="Segoe UI, Helvetica, Arial, sans-serif" font-size="12">0.7%</text>
  <circle cx="249" cy="140" r="4" fill="#dea584"/>
  <text x="258" y="144" fill="#c9d1d9" font-family="Segoe UI, Helvetica, Arial, sans-serif" font-size="12">Rust</text>
  <text x="432" y="144" fill="#8b949e" text-anchor="end" font-family="Segoe UI, Helvetica, Arial, sans-serif" font-size="12">0.5%</text>
  <circle cx="249" cy="164" r="4" fill="#355570"/>
  <text x="258" y="168" fill="#c9d1d9" font-family="Segoe UI, Helvetica, Arial, sans-serif" font-size="12">GDScript</text>
  <text x="432" y="168" fill="#8b949e" text-anchor="end" font-family="Segoe UI, Helvetica, Arial, sans-serif" font-size="12">0.3%</text>
  <circle cx="249" cy="188" r="4" fill="#484f58"/>
  <text x="258" y="192" fill="#c9d1d9" font-family="Segoe UI, Helvetica, Arial, sans-serif" font-size="12">Other</text>
  <text x="432" y="192" fill="#8b949e" text-anchor="end" font-family="Segoe UI, Helvetica, Arial, sans-serif" font-size="12">0.5%</text>
  <text x="24" y="218" fill="#6e7681" font-family="Segoe UI, Helvetica, Arial, sans-serif" font-size="10">Updated from GitHub language stats</text>
</svg>
