<svg xmlns="http://www.w3.org/2000/svg" width="460" height="220" viewBox="0 0 460 220" role="img" aria-label="Languages" shape-rendering="geometricPrecision">
  <defs>
    <linearGradient id="metalBorder" x1="0%" y1="0%" x2="100%" y2="100%">
      <stop offset="0%" stop-color="#f8fafc"/>
      <stop offset="28%" stop-color="#b6bec8"/>
      <stop offset="52%" stop-color="#eef1f4"/>
      <stop offset="78%" stop-color="#8b96a3"/>
      <stop offset="100%" stop-color="#6d7784"/>
    </linearGradient>
    <filter id="softShadow" x="-6%" y="-6%" width="112%" height="112%">
      <feDropShadow dx="0" dy="2" stdDeviation="4" flood-color="#94a3b8" flood-opacity="0.2"/>
    </filter>
  </defs>
  <g filter="url(#softShadow)">
    <rect width="460" height="220" rx="14" fill="url(#metalBorder)"/>
    <rect x="3" y="3" width="454" height="214" rx="11" fill="#ffffff"/>
  </g>
  <text x="230" y="34" fill="#24292f" text-anchor="middle" font-family="Segoe UI, Helvetica, Arial, sans-serif" font-size="14" font-weight="600">Languages</text>
  <rect x="24" y="48" width="412" height="10" rx="5" fill="#f3f4f6"/>
  <rect x="24" y="48" width="144" height="10" rx="0" fill="#3D6117"/>
  <rect x="168" y="48" width="124" height="10" rx="0" fill="#3572A5"/>
  <rect x="292" y="48" width="62" height="10" rx="0" fill="#3178c6"/>
  <rect x="354" y="48" width="50" height="10" rx="0" fill="#f1e05a"/>
  <rect x="404" y="48" width="15" height="10" rx="0" fill="#563d7c"/>
  <rect x="419" y="48" width="11" height="10" rx="0" fill="#e34c26"/>
  <rect x="430" y="48" width="3" height="10" rx="0" fill="#A97BFF"/>
  <rect x="433" y="48" width="3" height="10" rx="0" fill="#dea584"/>
  <rect x="436" y="48" width="3" height="10" rx="0" fill="#484f58"/>
  <rect x="24" y="48" width="412" height="10" rx="5" fill="none" stroke="#e8ebef" stroke-width="1"/>
  <circle cx="29" cy="92" r="3.5" fill="#3D6117"/>
  <text x="38" y="96" fill="#24292f" font-family="Segoe UI, Helvetica, Arial, sans-serif" font-size="12">TeX</text>
  <text x="212" y="96" fill="#656d76" text-anchor="end" font-family="Segoe UI, Helvetica, Arial, sans-serif" font-size="12">35%</text>
  <circle cx="249" cy="92" r="3.5" fill="#3572A5"/>
  <text x="258" y="96" fill="#24292f" font-family="Segoe UI, Helvetica, Arial, sans-serif" font-size="12">Python</text>
  <text x="432" y="96" fill="#656d76" text-anchor="end" font-family="Segoe UI, Helvetica, Arial, sans-serif" font-size="12">30%</text>
  <circle cx="29" cy="116" r="3.5" fill="#3178c6"/>
  <text x="38" y="120" fill="#24292f" font-family="Segoe UI, Helvetica, Arial, sans-serif" font-size="12">TypeScript</text>
  <text x="212" y="120" fill="#656d76" text-anchor="end" font-family="Segoe UI, Helvetica, Arial, sans-serif" font-size="12">15%</text>
  <circle cx="249" cy="116" r="3.5" fill="#f1e05a"/>
  <text x="258" y="120" fill="#24292f" font-family="Segoe UI, Helvetica, Arial, sans-serif" font-size="12">JavaScript</text>
  <text x="432" y="120" fill="#656d76" text-anchor="end" font-family="Segoe UI, Helvetica, Arial, sans-serif" font-size="12">12%</text>
  <circle cx="29" cy="140" r="3.5" fill="#563d7c"/>
  <text x="38" y="144" fill="#24292f" font-family="Segoe UI, Helvetica, Arial, sans-serif" font-size="12">CSS</text>
  <text x="212" y="144" fill="#656d76" text-anchor="end" font-family="Segoe UI, Helvetica, Arial, sans-serif" font-size="12">3.6%</text>
  <circle cx="249" cy="140" r="3.5" fill="#e34c26"/>
  <text x="258" y="144" fill="#24292f" font-family="Segoe UI, Helvetica, Arial, sans-serif" font-size="12">HTML</text>
  <text x="432" y="144" fill="#656d76" text-anchor="end" font-family="Segoe UI, Helvetica, Arial, sans-serif" font-size="12">2.7%</text>
  <circle cx="29" cy="164" r="3.5" fill="#A97BFF"/>
  <text x="38" y="168" fill="#24292f" font-family="Segoe UI, Helvetica, Arial, sans-serif" font-size="12">Kotlin</text>
  <text x="212" y="168" fill="#656d76" text-anchor="end" font-family="Segoe UI, Helvetica, Arial, sans-serif" font-size="12">0.5%</text>
  <circle cx="249" cy="164" r="3.5" fill="#dea584"/>
  <text x="258" y="168" fill="#24292f" font-family="Segoe UI, Helvetica, Arial, sans-serif" font-size="12">Rust</text>
  <text x="432" y="168" fill="#656d76" text-anchor="end" font-family="Segoe UI, Helvetica, Arial, sans-serif" font-size="12">0.3%</text>
  <circle cx="29" cy="188" r="3.5" fill="#484f58"/>
  <text x="38" y="192" fill="#24292f" font-family="Segoe UI, Helvetica, Arial, sans-serif" font-size="12">Other</text>
  <text x="212" y="192" fill="#656d76" text-anchor="end" font-family="Segoe UI, Helvetica, Arial, sans-serif" font-size="12">0.7%</text>
</svg>
